<svg xmlns="http://www.w3.org/2000/svg" viewBox="0 0 1280 800" width="1280" height="800" role="img" aria-label="RepoDeck dashboard preview">
  <defs>
    <radialGradient id="dglow" cx="55%" cy="0%" r="60%">
      <stop offset="0%" stop-color="#ffffff" stop-opacity="0.06"/>
      <stop offset="100%" stop-color="#050506" stop-opacity="0"/>
    </radialGradient>
  </defs>
  <rect width="1280" height="800" fill="#050506"/>
  <rect width="1280" height="800" fill="url(#dglow)"/>
  <rect x="0" y="0" width="232" height="800" fill="#08090b" stroke="#1d1f27"/>
  <g font-family="ui-sans-serif, -apple-system, 'Segoe UI', sans-serif">
    <g transform="translate(20 22)">
      <rect x="0" y="0" width="34" height="34" rx="9" fill="#ffffff"/>
      <g transform="translate(8 8)" fill="none" stroke="#060608" stroke-width="2.2" stroke-linecap="round" stroke-linejoin="round">
        <path d="M9 2 L15 5 L9 8 L3 5 Z"/>
        <path d="M3 8 L9 11 L15 8"/>
        <path d="M3 11 L9 14 L15 11"/>
      </g>
      <text x="44" y="16" font-size="15" font-weight="700" fill="#f7f8fa">RepoDeck</text>
      <text x="44" y="30" font-size="9" fill="#5c6170" letter-spacing="1">COMMAND DECK</text>
    </g>
    <g font-size="13" font-weight="600">
      <text x="24" y="106" font-size="9.5" fill="#5c6170" letter-spacing="1.4">WORKSPACE</text>
      <rect x="12" y="118" width="208" height="36" rx="9" fill="#16181e"/>
      <rect x="12" y="118" width="3" height="36" rx="1.5" fill="#ffffff"/>
      <rect x="26" y="129" width="14" height="14" rx="3" fill="none" stroke="#f7f8fa" stroke-width="1.6"/>
      <text x="50" y="141" fill="#f7f8fa">Dashboard</text>
      <g fill="#8a8f9b">
        <circle cx="33" cy="181" r="7" fill="none" stroke="#8a8f9b" stroke-width="1.6"/>
        <text x="50" y="185">Repositories</text>
        <path d="M28 235 l5 -6 l5 6 l-5 6 z" fill="none" stroke="#8a8f9b" stroke-width="1.6"/>
        <text x="50" y="239">Starred</text>
        <circle cx="33" cy="288" r="6.5" fill="none" stroke="#8a8f9b" stroke-width="1.6"/>
        <path d="M38 294 l6 6" stroke="#8a8f9b" stroke-width="1.6" stroke-linecap="round"/>
        <text x="50" y="293">Search</text>
        <path d="M26 342 a7 7 0 0 1 14 0 a7 7 0 0 1 -14 0 M33 336 v-3" fill="none" stroke="#8a8f9b" stroke-width="1.6"/>
        <text x="50" y="347">Notifications</text>
      </g>
      <text x="24" y="398" font-size="9.5" fill="#5c6170" letter-spacing="1.4">CREATE</text>
      <g fill="#8a8f9b">
        <path d="M33 415 v14 M26 422 h14" stroke="#8a8f9b" stroke-width="1.8" stroke-linecap="round"/>
        <text x="50" y="438">Import ZIP</text>
      </g>
      <text x="24" y="484" font-size="9.5" fill="#5c6170" letter-spacing="1.4">ACCOUNT</text>
      <g fill="#8a8f9b">
        <circle cx="33" cy="508" r="6.5" fill="none" stroke="#8a8f9b" stroke-width="1.6"/>
        <circle cx="33" cy="506" r="2.5" fill="#8a8f9b"/>
        <path d="M27 514 a6 6 0 0 1 12 0" fill="none" stroke="#8a8f9b" stroke-width="1.6"/>
        <text x="50" y="513">Settings</text>
      </g>
    </g>
    <rect x="12" y="712" width="208" height="1" fill="#1d1f27"/>
    <g transform="translate(20 732)">
      <circle cx="17" cy="17" r="17" fill="#16181e" stroke="#2b2f3a"/>
      <text x="17" y="22" text-anchor="middle" font-size="13" font-weight="700" fill="#c9cdd6">o</text>
      <text x="44" y="13" font-size="9" fill="#8a8f9b">SIGNED IN AS</text>
      <text x="44" y="28" font-size="13" font-weight="600" fill="#f7f8fa">octocat</text>
    </g>
    <rect x="232" y="0" width="1048" height="56" fill="#07080a" stroke="#1d1f27"/>
    <g font-size="12.5">
      <text x="260" y="34" fill="#5c6170">RepoDeck</text>
      <text x="330" y="34" fill="#2b2f3a">/</text>
      <text x="344" y="34" fill="#f7f8fa" font-weight="600">Dashboard</text>
    </g>
    <rect x="760" y="12" width="240" height="32" rx="9" fill="#0b0c0f" stroke="#2b2f3a"/>
    <text x="780" y="33" font-size="12" fill="#8a8f9b">Search or jump to…</text>
    <rect x="944" y="19" width="40" height="18" rx="5" fill="#16181e" stroke="#2b2f3a"/>
    <text x="964" y="32" text-anchor="middle" font-size="10" font-weight="700" fill="#8a8f9b">⌘K</text>
    <rect x="1014" y="12" width="104" height="32" rx="16" fill="#0b0c0f" stroke="#1d1f27"/>
    <circle cx="1032" cy="28" r="5" fill="none" stroke="#34d399" stroke-width="1.6"/>
    <text x="1044" y="32" font-size="11" font-weight="700" fill="#34d399">4997</text>
    <text x="1074" y="32" font-size="11" fill="#5c6170">/5000</text>
    <g transform="translate(1136 12)">
      <rect x="0" y="0" width="32" height="32" rx="9" fill="#0b0c0f" stroke="#1d1f27"/>
      <path d="M16 9 a6 6 0 0 1 6 6 v3 l2 3 h-16 l2 -3 v-3 a6 6 0 0 1 6 -6 z" fill="none" stroke="#8a8f9b" stroke-width="1.5"/>
      <circle cx="22" cy="10" r="3" fill="#f87171" stroke="#07080a" stroke-width="1.5"/>
    </g>
    <rect x="1180" y="12" width="60" height="32" rx="16" fill="#0b0c0f" stroke="#1d1f27"/>
    <circle cx="1196" cy="28" r="10" fill="#16181e" stroke="#2b2f3a"/>
    <path d="M1210 24 l6 4 l-6 4" fill="none" stroke="#8a8f9b" stroke-width="1.5" stroke-linecap="round"/>
    <g font-family="ui-sans-serif, -apple-system, 'Segoe UI', sans-serif">
      <text x="272" y="112" font-size="11" font-weight="700" fill="#8a8f9b" letter-spacing="1.6">MISSION CONTROL</text>
      <text x="272" y="152" font-size="34" font-weight="700" fill="#f7f8fa" letter-spacing="-1">Welcome back, octocat</text>
      <text x="272" y="180" font-size="13" fill="#8a8f9b">Every repository you can reach, with audits, review-grade diffs, and file-level writes.</text>
      <rect x="1004" y="120" width="116" height="38" rx="9" fill="#16181e" stroke="#2b2f3a"/>
      <text x="1062" y="144" text-anchor="middle" font-size="12.5" font-weight="600" fill="#c9cdd6">⌘K Search</text>
      <rect x="1132" y="120" width="128" height="38" rx="9" fill="#ffffff"/>
      <text x="1196" y="144" text-anchor="middle" font-size="12.5" font-weight="700" fill="#060608">Import ZIP</text>
    </g>
    <g>
      <rect x="272" y="212" width="306" height="94" rx="14" fill="#0b0c0f" stroke="#1d1f27"/>
      <text x="292" y="240" font-size="10" font-weight="700" fill="#8a8f9b" letter-spacing="1">REPOSITORIES</text>
      <text x="292" y="280" font-size="30" font-weight="700" fill="#f7f8fa">42</text>
      <text x="342" y="280" font-size="12" fill="#8a8f9b">17 private · 25 public</text>
      <rect x="598" y="212" width="306" height="94" rx="14" fill="#0b0c0f" stroke="#1d1f27"/>
      <text x="618" y="240" font-size="10" font-weight="700" fill="#8a8f9b" letter-spacing="1">STARS RECEIVED</text>
      <text x="618" y="280" font-size="30" font-weight="700" fill="#f7f8fa">1.8k</text>
      <text x="676" y="280" font-size="12" fill="#8a8f9b">across your selection</text>
      <rect x="924" y="212" width="336" height="94" rx="14" fill="#0b0c0f" stroke="#1d1f27"/>
      <text x="944" y="240" font-size="10" font-weight="700" fill="#8a8f9b" letter-spacing="1">OPEN ISSUES / PRS</text>
      <text x="944" y="280" font-size="30" font-weight="700" fill="#f7f8fa">37</text>
      <text x="994" y="280" font-size="12" fill="#8a8f9b">12 awaiting review</text>
    </g>
    <g>
      <rect x="272" y="326" width="610" height="196" rx="14" fill="#0b0c0f" stroke="#1d1f27"/>
      <text x="292" y="356" font-size="14" font-weight="600" fill="#f7f8fa">Language mix</text>
      <text x="862" y="356" text-anchor="end" font-size="11" fill="#8a8f9b">by repository count</text>
      <circle cx="400" cy="430" r="52" fill="none" stroke="#16181e" stroke-width="14"/>
      <circle cx="400" cy="430" r="52" fill="none" stroke="#3178c6" stroke-width="14" stroke-dasharray="150 327" stroke-linecap="butt" transform="rotate(-90 400 430)"/>
      <circle cx="400" cy="430" r="52" fill="none" stroke="#f1e05a" stroke-width="14" stroke-dasharray="70 327" stroke-dashoffset="-150" transform="rotate(-90 400 430)"/>
      <circle cx="400" cy="430" r="52" fill="none" stroke="#3572a5" stroke-width="14" stroke-dasharray="50 327" stroke-dashoffset="-220" transform="rotate(-90 400 430)"/>
      <circle cx="400" cy="430" r="52" fill="none" stroke="#00add8" stroke-width="14" stroke-dasharray="57 327" stroke-dashoffset="-270" transform="rotate(-90 400 430)"/>
      <text x="400" y="428" text-anchor="middle" font-size="16" font-weight="700" fill="#f7f8fa">TypeScript</text>
      <text x="400" y="448" text-anchor="middle" font-size="12" fill="#8a8f9b">46%</text>
      <g font-size="12.5" fill="#c9cdd6">
        <circle cx="510" cy="386" r="5" fill="#3178c6"/><text x="524" y="391">TypeScript</text><text x="862" y="391" text-anchor="end" fill="#5c6170">46%</text>
        <rect x="510" y="400" width="352" height="6" rx="3" fill="#16181e"/><rect x="510" y="400" width="162" height="6" rx="3" fill="#3178c6"/>
        <circle cx="510" cy="428" r="5" fill="#f1e05a"/><text x="524" y="433">JavaScript</text><text x="862" y="433" text-anchor="end" fill="#5c6170">21%</text>
        <rect x="510" y="442" width="352" height="6" rx="3" fill="#16181e"/><rect x="510" y="442" width="74" height="6" rx="3" fill="#f1e05a"/>
        <circle cx="510" cy="470" r="5" fill="#3572a5"/><text x="524" y="475">Python</text><text x="862" y="475" text-anchor="end" fill="#5c6170">16%</text>
        <rect x="510" y="484" width="352" height="6" rx="3" fill="#16181e"/><rect x="510" y="484" width="56" height="6" rx="3" fill="#3572a5"/>
      </g>
    </g>
    <g>
      <rect x="900" y="326" width="360" height="196" rx="14" fill="#0b0c0f" stroke="#1d1f27"/>
      <text x="920" y="356" font-size="14" font-weight="600" fill="#f7f8fa">Quick tools</text>
      <g font-size="12.5" font-weight="600">
        <rect x="920" y="374" width="320" height="30" rx="8" fill="#121317" stroke="#2b2f3a"/><text x="938" y="393" fill="#f7f8fa">Browse all repositories</text>
        <rect x="920" y="412" width="320" height="30" rx="8" fill="#121317" stroke="#2b2f3a"/><text x="938" y="431" fill="#f7f8fa">Starred repositories</text>
        <rect x="920" y="450" width="320" height="30" rx="8" fill="#121317" stroke="#2b2f3a"/><text x="938" y="469" fill="#f7f8fa">Search code and issues</text>
        <rect x="920" y="488" width="320" height="22" rx="8" fill="none"/><text x="938" y="503" fill="#8a8f9b" font-size="11.5">Review queue and API budget →</text>
      </g>
    </g>
    <text x="272" y="568" font-size="17" font-weight="700" fill="#f7f8fa">Most recently pushed</text>
    <text x="1240" y="568" text-anchor="end" font-size="12" fill="#8a8f9b">View all →</text>
    <g>
      <rect x="272" y="590" width="306" height="176" rx="14" fill="#0b0c0f" stroke="#1d1f27"/>
      <circle cx="300" cy="622" r="14" fill="#16181e" stroke="#2b2f3a"/>
      <text x="326" y="618" font-size="13.5" font-weight="600" fill="#f7f8fa">repodeck</text>
      <text x="326" y="634" font-size="11" fill="#8a8f9b">octocat</text>
      <rect x="500" y="606" width="60" height="20" rx="10" fill="#16181e" stroke="#2b2f3a"/>
      <text x="530" y="620" text-anchor="middle" font-size="9.5" font-weight="700" fill="#8a8f9b">PUBLIC</text>
      <text x="292" y="670" font-size="11.5" fill="#8a8f9b">Self-hosted command deck for GitHub.</text>
      <text x="292" y="690" font-size="11.5" fill="#8a8f9b">TypeScript · ★ 1.2k · ⑂ 86</text>
      <text x="292" y="726" font-size="10.5" fill="#5c6170">pushed just now</text>
      <rect x="598" y="590" width="306" height="176" rx="14" fill="#0b0c0f" stroke="#1d1f27"/>
      <circle cx="626" cy="622" r="14" fill="#16181e" stroke="#2b2f3a"/>
      <text x="652" y="618" font-size="13.5" font-weight="600" fill="#f7f8fa">zip-import</text>
      <text x="652" y="634" font-size="11" fill="#8a8f9b">octocat</text>
      <text x="618" y="670" font-size="11.5" fill="#8a8f9b">Safe archive → one root commit.</text>
      <text x="618" y="690" font-size="11.5" fill="#8a8f9b">Go · ★ 412 · ⑂ 33</text>
      <text x="618" y="726" font-size="10.5" fill="#5c6170">pushed 3h ago</text>
      <rect x="924" y="590" width="336" height="176" rx="14" fill="#0b0c0f" stroke="#1d1f27"/>
      <circle cx="952" cy="622" r="14" fill="#16181e" stroke="#2b2f3a"/>
      <text x="978" y="618" font-size="13.5" font-weight="600" fill="#f7f8fa">radar-rules</text>
      <text x="978" y="634" font-size="11" fill="#8a8f9b">octocat</text>
      <rect x="1150" y="606" width="82" height="20" rx="10" fill="#2a1f10" stroke="#5a4318"/>
      <text x="1191" y="620" text-anchor="middle" font-size="9.5" font-weight="700" fill="#fbbf24">ARCHIVED</text>
      <text x="944" y="670" font-size="11.5" fill="#8a8f9b">Secret detection rule families.</text>
      <text x="944" y="690" font-size="11.5" fill="#8a8f9b">Rust · ★ 208 · ⑂ 12</text>
      <text x="944" y="726" font-size="10.5" fill="#5c6170">pushed last week</text>
    </g>
  </g>
  <rect x="0.5" y="0.5" width="1279" height="799" fill="none" stroke="#1d1f27" rx="0"/>
</svg>
